<mxfile host="app.diagrams.net" modified="2023-09-16T15:06:14.466Z" agent="Mozilla/5.0 (Windows NT 10.0; Win64; x64) AppleWebKit/537.36 (KHTML, like Gecko) Chrome/116.0.0.0 Safari/537.36 Edg/116.0.1938.81" version="21.7.5" etag="H212gM9Ap3s0PAWPTyep" type="github">
  <diagram name="Page-1" id="RKJy3Aj0iC4LjHsjWk4V">
    <mxGraphModel>
      <root>
        <mxCell id="0" />
        <mxCell id="1" parent="0" />
      </root>
    </mxGraphModel>
  </diagram>
</mxfile>
